<svg width="72" height="24" viewBox="0 0 72 24" fill="none" xmlns="http://www.w3.org/2000/svg">
<path d="M29.9247 23.9857C28.1042 23.9857 26.481 23.6348 25.0552 22.9328C23.6295 22.2309 22.4998 21.211 21.6663 19.8729C20.8547 18.513 20.4489 16.9008 20.4489 15.0363C20.4489 13.0841 20.8437 11.3622 21.6334 9.87066C22.423 8.3791 23.5198 7.22752 24.9236 6.41593C26.3494 5.58241 27.9835 5.16565 29.826 5.16565C31.7344 5.16565 33.3356 5.58241 34.6298 6.41593C35.9239 7.22752 36.8891 8.40103 37.5252 9.93647C38.1832 11.4719 38.5013 13.2925 38.4793 15.3982H22.2585V12.3383H35.9459L34.0046 13.786C34.0046 12.7112 33.8511 11.768 33.544 10.9564C33.2588 10.1448 32.7982 9.49777 32.1621 9.01521C31.5479 8.53264 30.7692 8.29136 29.826 8.29136C28.8609 8.29136 28.0164 8.55457 27.2926 9.08101C26.5687 9.60745 26.0094 10.3752 25.6146 11.3842C25.2197 12.3932 25.0223 13.5776 25.0223 14.9376C25.0223 16.144 25.2307 17.1859 25.6475 18.0633C26.0862 18.9407 26.6784 19.6097 27.4242 20.0704C28.1919 20.509 29.0364 20.7284 29.9576 20.7284C31.2299 20.7284 32.2827 20.3884 33.1163 19.7084C33.9717 19.0065 34.5969 18.1291 34.9917 17.0762L38.7096 19.3136C37.6568 20.8929 36.3736 22.0664 34.8601 22.8341C33.3685 23.6019 31.7234 23.9857 29.9247 23.9857Z" fill="currentColor"></path>
<path d="M49.2561 23.9857C47.4355 23.9857 45.8123 23.6348 44.3866 22.9328C42.9608 22.2309 41.8312 21.211 40.9976 19.8729C40.186 18.513 39.7802 16.9008 39.7802 15.0363C39.7802 13.0841 40.1751 11.3622 40.9647 9.87066C41.7544 8.3791 42.8511 7.22752 44.2549 6.41593C45.6807 5.58241 47.3148 5.16565 49.1574 5.16565C51.0657 5.16565 52.6669 5.58241 53.9611 6.41593C55.2553 7.22752 56.2204 8.40103 56.8565 9.93647C57.5145 11.4719 57.8326 13.2925 57.8107 15.3982H41.5899V12.3383H55.2772L53.336 13.786C53.336 12.7112 53.1824 11.768 52.8753 10.9564C52.5902 10.1448 52.1295 9.49777 51.4934 9.01521C50.8793 8.53264 50.1006 8.29136 49.1574 8.29136C48.1922 8.29136 47.3478 8.55457 46.6239 9.08101C45.9001 9.60745 45.3407 10.3752 44.9459 11.3842C44.5511 12.3932 44.3537 13.5776 44.3537 14.9376C44.3537 16.144 44.562 17.1859 44.9788 18.0633C45.4175 18.9407 46.0097 19.6097 46.7555 20.0704C47.5232 20.509 48.3677 20.7284 49.289 20.7284C50.5612 20.7284 51.6141 20.3884 52.4476 19.7084C53.303 19.0065 53.9282 18.1291 54.323 17.0762L58.041 19.3136C56.9881 20.8929 55.7049 22.0664 54.1914 22.8341C52.6999 23.6019 51.0547 23.9857 49.2561 23.9857Z" fill="currentColor"></path>
<path d="M59.2761 0H63.685V19.2478C63.685 20.8052 63.7618 22.2309 63.9153 23.5251H59.2761V0Z" fill="currentColor"></path>
<path d="M0 14.5881C0 8.07194 4.15956 5.17629 8.72063 5.17629C12.8834 5.17629 14.6387 7.82118 14.6387 7.82118V0.00873133H19.1473V19.2617C19.1473 20.8421 19.2017 22.2682 19.312 23.5398H14.6402V21.3789C14.6402 21.3789 12.8513 24 8.7221 24C4.32007 24 0 21.474 0 14.5881ZM9.87217 20.5406C13.0653 20.5406 15.1298 18.1102 15.1298 14.5881C15.1298 10.9429 13.0638 8.63569 9.87217 8.63569C6.68049 8.63569 4.69086 10.829 4.69086 14.5881C4.69086 18.3473 6.76428 20.5406 9.87217 20.5406Z" fill="currentColor"></path>
<path d="M66.5349 19.3137H70.878V23.5252H66.5349V19.3137Z" fill="currentColor"></path>
</svg>